#define 1574877899713_width 64
#define 1574877899713_height 64
static char 1574877899713_bits[] = {
  0x00, 0x00, 0x00, 0x00, 0x00, 0x00, 0x00, 0x00, 0x00, 0x00, 0x00, 0x00, 
  0x00, 0x00, 0x00, 0x00, 0x00, 0x00, 0x00, 0x00, 0x0E, 0x00, 0x00, 0x00, 
  0x00, 0x00, 0x00, 0x00, 0x1F, 0x00, 0x00, 0x00, 0x00, 0x00, 0x00, 0x00, 
  0x1F, 0x00, 0x00, 0x00, 0x00, 0x00, 0x00, 0x03, 0xBF, 0x33, 0x00, 0x00, 
  0x00, 0x00, 0x00, 0x07, 0xBF, 0x39, 0x00, 0x00, 0x00, 0x00, 0x00, 0x03, 
  0x9F, 0x31, 0x00, 0x00, 0x00, 0x00, 0x00, 0x03, 0xBF, 0x33, 0x00, 0x00, 
  0x00, 0x00, 0x00, 0x07, 0x9F, 0x31, 0x00, 0x00, 0x00, 0x00, 0x00, 0x03, 
  0xBF, 0x31, 0x00, 0x00, 0x00, 0x00, 0x00, 0x03, 0x9F, 0x33, 0x00, 0x00, 
  0x00, 0x00, 0x00, 0x03, 0xBF, 0x33, 0x00, 0x00, 0x00, 0x00, 0x80, 0xAF, 
  0xFF, 0x3B, 0x00, 0x00, 0x00, 0x00, 0xF8, 0xFF, 0xFF, 0xFF, 0x01, 0x00, 
  0x00, 0x00, 0x7C, 0x22, 0x82, 0xE8, 0x03, 0x00, 0x00, 0x00, 0x0E, 0x00, 
  0x00, 0x00, 0x07, 0x00, 0x00, 0x00, 0x06, 0x00, 0x00, 0x00, 0x0C, 0x00, 
  0x00, 0x00, 0x03, 0x00, 0x00, 0x00, 0x0C, 0x00, 0x00, 0x00, 0x03, 0x00, 
  0x00, 0x00, 0x18, 0x00, 0x00, 0x00, 0x41, 0x01, 0x00, 0x1A, 0x18, 0x00, 
  0x00, 0x80, 0x69, 0x26, 0x00, 0x00, 0x1A, 0x00, 0x00, 0x80, 0x21, 0xA4, 
  0x26, 0x65, 0x18, 0x00, 0x00, 0x00, 0x49, 0x51, 0xC4, 0x14, 0x19, 0x00, 
  0x00, 0x80, 0x19, 0x22, 0x25, 0x94, 0x19, 0x00, 0x00, 0x80, 0x81, 0xA9, 
  0x51, 0x92, 0x18, 0x00, 0x00, 0x80, 0x69, 0x99, 0x0C, 0x20, 0x1A, 0x00, 
  0x00, 0x80, 0x21, 0x02, 0xB2, 0x41, 0x18, 0x00, 0x00, 0x80, 0x91, 0x02, 
  0x42, 0x29, 0x19, 0x00, 0x00, 0x00, 0x99, 0x04, 0x6C, 0xC4, 0x1A, 0x00, 
  0x00, 0x80, 0x01, 0x05, 0x12, 0x16, 0x19, 0x00, 0x00, 0x80, 0x69, 0x98, 
  0x85, 0x52, 0x18, 0x00, 0x00, 0x80, 0x29, 0x68, 0x00, 0xAC, 0x18, 0x00, 
  0x00, 0x80, 0x41, 0x82, 0x16, 0x81, 0x1A, 0x00, 0x00, 0x80, 0x91, 0x15, 
  0x54, 0x39, 0x19, 0x00, 0x00, 0x00, 0x91, 0x51, 0x49, 0x82, 0x18, 0x00, 
  0x00, 0x80, 0x21, 0x20, 0x36, 0x61, 0x1A, 0x00, 0x00, 0x80, 0x41, 0x9A, 
  0x88, 0x00, 0x18, 0x00, 0x00, 0x80, 0x61, 0x10, 0x91, 0xA2, 0x1B, 0x00, 
  0x00, 0x80, 0x19, 0xCB, 0x45, 0x4A, 0x18, 0x00, 0x00, 0x80, 0x31, 0x50, 
  0x14, 0x22, 0x19, 0x00, 0x00, 0x80, 0x89, 0x18, 0x08, 0xA8, 0x18, 0x00, 
  0x00, 0x00, 0x91, 0xC0, 0x00, 0x18, 0x1A, 0x00, 0x00, 0xD8, 0x49, 0x1C, 
  0x14, 0xC5, 0x18, 0x00, 0x00, 0xF8, 0x41, 0x11, 0x89, 0x08, 0x19, 0x00, 
  0x00, 0xF8, 0x9B, 0xC4, 0x61, 0x66, 0x18, 0x00, 0x00, 0x1C, 0x83, 0x16, 
  0x30, 0xC3, 0x0C, 0x00, 0x00, 0x18, 0x33, 0x51, 0x88, 0x18, 0x0C, 0x00, 
  0x00, 0x10, 0x86, 0xC8, 0x86, 0x08, 0x06, 0x00, 0x00, 0x00, 0x8C, 0x12, 
  0x31, 0x13, 0x07, 0x00, 0x00, 0x00, 0x1C, 0x91, 0x68, 0x08, 0x03, 0x00, 
  0x00, 0x00, 0x38, 0x24, 0x8A, 0x8A, 0x03, 0x00, 0x00, 0x00, 0x70, 0x48, 
  0x14, 0xC1, 0x01, 0x00, 0x00, 0x00, 0xE0, 0x20, 0x49, 0xF0, 0x00, 0x00, 
  0x00, 0x00, 0xC0, 0x07, 0x00, 0x7C, 0x00, 0x00, 0x00, 0x00, 0xC0, 0xFF, 
  0xFF, 0x7F, 0x00, 0x00, 0x00, 0x00, 0xC0, 0xFC, 0xFF, 0x67, 0x00, 0x00, 
  0x00, 0x00, 0xC0, 0x18, 0x00, 0x62, 0x00, 0x00, 0x00, 0x00, 0xC0, 0x1C, 
  0x00, 0x67, 0x00, 0x00, 0x00, 0x00, 0xC0, 0x1C, 0x00, 0xE2, 0x00, 0x00, 
  0x00, 0x00, 0xC0, 0x00, 0x00, 0x06, 0x00, 0x00, 0x00, 0x00, 0xE0, 0x01, 
  0x00, 0x07, 0x00, 0x00, 0x00, 0x00, 0x00, 0x00, 0x00, 0x00, 0x00, 0x00, 
  0x00, 0x00, 0x00, 0x00, 0x00, 0x00, 0x00, 0x00, };
